<?xml version="1.0" encoding="utf-8"?>
<!-- Generator: Adobe Illustrator 24.1.0, SVG Export Plug-In . SVG Version: 6.00 Build 0)  -->
<svg version="1.1" id="Layer_1" xmlns="http://www.w3.org/2000/svg" xmlns:xlink="http://www.w3.org/1999/xlink" x="0px" y="0px"
	 viewBox="0 0 90 125" style="enable-background:new 0 0 90 125;" xml:space="preserve">
<g>
	<g>
		<path d="M70.4,69.1l12.7-12.7c9.2-9.2,9.2-24.3,0-33.5c-9.2-9.2-24.3-9.2-33.5,0L31.2,41.2c-9.2,9.2-9.2,24.3,0,33.5
			c1.4,1.4,2.9,2.5,4.4,3.5l9.8-9.8c-1.9-0.4-3.6-1.4-5.1-2.8c-4.2-4.2-4.2-11,0-15.2l18.3-18.3c4.2-4.2,11-4.2,15.2,0
			c4.2,4.2,4.2,11,0,15.2l-5.4,5.4C70.8,57.9,71.4,63.6,70.4,69.1z"/>
	</g>
	<g>
		<path d="M19.6,52.9L6.9,65.5c-9.2,9.2-9.2,24.3,0,33.5c9.2,9.2,24.3,9.2,33.5,0l18.3-18.3c9.2-9.2,9.2-24.3,0-33.5
			c-1.4-1.4-2.9-2.5-4.4-3.5l-9.8,9.8c1.9,0.4,3.6,1.4,5.1,2.8c4.2,4.2,4.2,11,0,15.2L31.3,89.9c-4.2,4.2-11,4.2-15.2,0
			s-4.2-11,0-15.2l5.4-5.4C19.2,64.1,18.6,58.4,19.6,52.9z"/>
	</g>
</g>
</svg>
