<?xml version="1.0" encoding="utf-8"?>
<!-- Generator: Adobe Illustrator 24.1.0, SVG Export Plug-In . SVG Version: 6.00 Build 0)  -->
<svg version="1.1" id="Layer_1" xmlns="http://www.w3.org/2000/svg" xmlns:xlink="http://www.w3.org/1999/xlink" x="0px" y="0px"
	 viewBox="0 0 20.5 20.5" style="enable-background:new 0 0 20.5 20.5;" xml:space="preserve">
<g>
	<path d="M2,17.1h16.5c1.1,0,2-0.9,2-2V5.4c0-1.1-0.9-2-2-2H2c-1.1,0-2,0.9-2,2v9.7C0,16.2,0.9,17.1,2,17.1z M2,4.7h16.5
		c0.3,0,0.5,0.2,0.6,0.4l-8.9,5.4L1.4,5.1C1.5,4.9,1.7,4.7,2,4.7z M18.5,15.8H2c-0.4,0-0.7-0.3-0.7-0.7V6.6l8.6,5.3
		c0.2,0.1,0.5,0.1,0.7,0l8.6-5.3v8.5C19.2,15.5,18.9,15.8,18.5,15.8z"/>
</g>
</svg>
