<?xml version="1.0" standalone="no"?>
<!DOCTYPE svg PUBLIC "-//W3C//DTD SVG 20010904//EN"
 "http://www.w3.org/TR/2001/REC-SVG-20010904/DTD/svg10.dtd">
<svg version="1.0" xmlns="http://www.w3.org/2000/svg"
 width="922.000000pt" height="922.000000pt" viewBox="0 0 922.000000 922.000000"
 preserveAspectRatio="xMidYMid meet">
<metadata>
Created by potrace 1.11, written by Peter Selinger 2001-2013
</metadata>
<g transform="translate(0.000000,922.000000) scale(0.100000,-0.100000)"
fill="#000000" stroke="none">
<path d="M5830 9177 c-41 -20 -88 -40 -105 -43 -80 -13 -123 -34 -180 -87 -11
-10 -70 -51 -131 -92 -222 -149 -411 -408 -402 -552 3 -54 1 -57 -39 -53 -39
3 -272 -68 -343 -105 -28 -15 -99 -74 -132 -111 l-19 -21 -38 36 c-20 20 -50
54 -66 76 -16 22 -36 44 -44 49 -8 5 -27 21 -41 36 -34 35 -228 98 -365 118
-61 9 -189 8 -230 -1 -16 -4 -70 -9 -120 -13 -130 -8 -187 -27 -269 -88 -76
-57 -136 -109 -136 -118 0 -4 -27 -34 -59 -67 -39 -40 -75 -92 -104 -149 -24
-48 -51 -100 -59 -117 -39 -75 -67 -143 -72 -171 -6 -34 -14 -161 -21 -339 -2
-61 -8 -122 -12 -135 -17 -49 -4 -140 37 -250 36 -99 156 -305 215 -370 23
-25 60 -69 84 -98 24 -29 58 -60 75 -69 17 -9 33 -19 36 -23 8 -12 84 -50 99
-50 8 0 30 -14 47 -31 33 -32 64 -34 64 -5 0 20 -61 69 -107 85 -64 24 -149
89 -206 159 -31 37 -69 83 -86 102 -17 19 -31 39 -31 43 0 5 -9 23 -21 40
l-21 32 24 -26 c12 -14 40 -47 61 -73 21 -25 56 -55 77 -66 21 -11 58 -41 82
-66 24 -26 61 -58 83 -72 22 -14 46 -33 53 -43 16 -22 72 -41 106 -35 31 6 32
4 40 -59 4 -27 9 -61 11 -75 2 -14 8 -56 14 -95 6 -38 13 -95 15 -125 3 -30
15 -86 27 -125 26 -85 110 -244 153 -290 48 -52 180 -142 234 -159 28 -10 72
-37 103 -65 48 -42 83 -63 209 -119 49 -22 107 -66 166 -127 42 -44 59 -55
106 -65 43 -10 59 -18 67 -37 8 -18 8 -29 1 -38 -5 -6 -13 -32 -16 -57 -9 -67
12 -85 105 -87 81 -2 121 14 139 54 17 38 16 45 -23 104 -19 29 -35 54 -35 56
0 3 50 53 111 112 111 108 148 156 129 168 -6 3 -10 15 -10 27 0 15 4 18 18
13 9 -4 47 -17 83 -30 96 -33 110 -44 106 -81 -2 -18 -10 -43 -19 -56 -36 -54
-87 -187 -91 -235 -1 -18 6 -32 25 -46 24 -18 40 -20 120 -19 51 1 107 7 125
13 47 15 59 66 28 115 -22 35 -48 144 -50 217 l-3 69 46 31 c25 18 57 42 71
53 l25 22 36 -69 c41 -78 168 -222 220 -249 19 -10 53 -23 76 -29 38 -10 40
-12 36 -45 -2 -20 -19 -52 -44 -82 -50 -61 -58 -77 -63 -121 -5 -52 31 -86 83
-78 92 14 140 37 143 68 1 7 3 38 5 70 6 85 24 113 73 120 28 3 62 21 108 56
37 28 114 78 170 111 74 44 116 77 150 118 66 78 61 73 130 115 34 21 76 54
93 75 17 20 46 53 64 72 66 73 133 184 171 287 14 35 39 90 56 121 54 98 130
345 145 471 3 31 8 65 10 76 2 11 7 40 10 65 3 25 7 52 10 61 2 9 7 96 9 194
5 167 3 186 -21 289 -33 140 -99 272 -158 319 -22 18 -53 46 -67 62 -15 17
-40 37 -56 45 -15 8 -50 36 -77 62 -27 27 -53 48 -58 48 -4 0 -8 9 -8 19 0 14
5 18 20 14 12 -3 21 0 23 8 13 49 43 130 69 186 39 84 64 216 72 373 4 69 8
153 10 188 2 51 -2 72 -24 120 -15 31 -31 73 -35 92 -11 51 -32 88 -74 129
-61 60 -222 205 -246 221 -12 8 -36 30 -54 47 -33 33 -110 63 -163 63 -16 0
-57 10 -91 22 -54 19 -83 22 -227 23 l-165 0 -75 -38z m1038 -442 c-3 -3 -9 2
-12 12 -6 14 -5 15 5 6 7 -7 10 -15 7 -18z m-1368 -380 c43 -12 180 -73 180
-79 0 -1 -51 14 -112 35 -88 30 -130 39 -188 40 l-75 1 45 12 c49 14 80 12
150 -9z m1409 -224 c-6 -29 -13 -50 -15 -48 -3 2 1 28 7 56 6 29 13 50 15 48
3 -2 -1 -28 -7 -56z m-811 -264 c20 -21 21 -28 11 -53 l-11 -29 -20 50 c-11
27 -25 56 -31 64 -20 24 24 -3 51 -32z m-1769 6 c-5 -16 -25 -46 -45 -68 l-35
-40 17 35 c16 35 61 100 69 100 2 0 0 -12 -6 -27z m-1384 -170 c-22 -83 -34
-100 -25 -36 6 47 31 116 38 108 3 -2 -4 -35 -13 -72z m3808 -18 c20 -14 37
-28 37 -31 0 -3 -12 3 -27 14 -16 10 -37 24 -48 30 -11 6 -15 12 -10 12 6 0
27 -11 48 -25z m-2630 -210 c-9 -39 -19 -104 -24 -145 -7 -70 -7 -68 -4 30 2
69 9 121 20 148 10 24 19 41 21 40 1 -2 -4 -35 -13 -73z m-77 -178 c2 -14 -2
-16 -19 -11 -29 8 -30 11 -22 24 10 16 38 8 41 -13z m-1148 -112 c2 -19 -2
-35 -7 -35 -7 0 -9 48 -2 68 4 10 7 -3 9 -33z m838 26 c-6 -9 -46 -22 -46 -15
0 3 10 9 23 14 29 11 29 11 23 1z m361 -33 c-3 -8 -6 -5 -6 6 -1 11 2 17 5 13
3 -3 4 -12 1 -19z m22 -193 c6 -38 13 -83 16 -100 3 -17 -4 -6 -16 25 -12 33
-22 88 -24 140 -4 89 1 76 24 -65z m-514 89 c-8 -16 -15 -36 -16 -44 0 -10 -2
-11 -5 -3 -5 12 25 87 32 80 3 -2 -2 -17 -11 -33z m-30 -174 c3 -5 1 -10 -4
-10 -6 0 -11 5 -11 10 0 6 2 10 4 10 3 0 8 -4 11 -10z m5 -132 c0 -56 -2 -99
-4 -97 -9 10 -15 209 -6 204 6 -4 10 -52 10 -107z m2443 -221 c-2 -51 -11
-103 -23 -133 l-20 -49 6 60 c8 89 30 205 39 205 1 0 1 -38 -2 -83z m-1835 -7
c0 -9 -3 -7 -8 5 -5 11 -8 29 -8 40 0 16 2 15 8 -5 4 -14 8 -32 8 -40z m27
-168 c-7 -7 -25 73 -24 103 1 19 6 6 14 -35 7 -36 12 -67 10 -68z m1762 -54
c-3 -7 -5 -2 -5 12 0 14 2 19 5 13 2 -7 2 -19 0 -25z m-1457 -461 c-3 -1 -27
22 -55 53 l-49 55 54 -52 c30 -29 52 -54 50 -56z m35 -27 c10 -11 16 -20 13
-20 -3 0 -13 9 -23 20 -10 11 -16 20 -13 20 3 0 13 -9 23 -20z m-777 -92 c17
-29 43 -61 59 -71 15 -11 37 -31 47 -45 l19 -27 -29 25 c-61 53 -100 96 -116
133 -25 53 -15 46 20 -15z m1137 -199 c44 -27 18 -22 -35 7 -25 14 -34 22 -20
18 14 -3 39 -15 55 -25z m714 -89 c24 -52 38 -74 68 -109 29 -33 22 -39 -10
-8 -33 30 -109 175 -100 190 4 7 9 4 14 -9 4 -10 17 -39 28 -64z m140 -203
c-2 -3 -15 10 -28 27 l-24 31 28 -27 c16 -15 27 -29 24 -31z m-1210 -43 c67
-49 74 -64 20 -41 -31 13 -107 87 -90 87 4 0 35 -21 70 -46z m677 -115 c-2
-17 0 -43 5 -57 12 -30 10 -32 -18 -21 -21 8 -21 9 -5 58 18 58 26 66 18 20z
m-470 -134 c22 -4 37 0 57 15 23 18 27 19 27 5 0 -17 -54 -45 -79 -40 -9 2
-31 4 -48 4 -28 1 -33 5 -33 24 0 33 10 39 29 17 9 -10 30 -21 47 -25z"/>
<path d="M5666 5198 c-2 -7 -19 -62 -39 -123 -35 -108 -42 -157 -53 -355 -9
-149 -9 -248 0 -334 4 -43 9 -97 12 -120 4 -49 17 -406 17 -456 -1 -19 -4 -80
-7 -135 -3 -55 -7 -262 -9 -460 l-3 -360 -32 -124 c-18 -68 -32 -126 -32 -129
0 -4 -5 -1 -10 4 -11 11 -59 207 -91 374 -23 116 -39 295 -44 495 -3 83 -5
155 -5 160 -1 6 -1 62 0 125 1 63 -3 147 -8 185 -6 39 -11 92 -11 118 0 27 -5
83 -10 125 -27 202 -30 276 -17 337 8 39 6 344 -3 408 -1 4 -10 7 -21 7 -23 0
-24 -5 -20 -105 4 -151 3 -281 -4 -310 -7 -32 -9 -137 -2 -170 2 -11 7 -52 11
-92 4 -40 8 -85 10 -100 2 -15 7 -77 10 -138 4 -60 10 -114 13 -120 4 -5 7
-143 8 -305 1 -162 4 -309 8 -327 4 -18 9 -70 11 -117 2 -47 6 -89 9 -94 3 -5
8 -34 11 -63 4 -30 10 -65 15 -79 8 -21 37 -151 54 -240 7 -38 34 -108 50
-131 10 -14 12 -29 6 -49 -5 -16 -11 -75 -15 -132 -4 -57 -9 -106 -11 -110
-12 -18 -15 -147 -5 -166 11 -21 41 -31 41 -14 3 93 9 171 13 187 3 11 8 63
11 115 4 54 18 134 32 185 79 275 76 252 80 675 4 486 8 544 44 705 10 44 21
103 25 130 30 220 119 499 196 613 30 45 36 67 19 77 -24 15 -103 -108 -145
-225 -52 -145 -63 -181 -68 -216 -3 -21 -13 -66 -22 -99 -8 -33 -18 -76 -21
-95 -3 -19 -10 -53 -14 -75 -7 -37 -8 -36 -7 20 0 33 -2 94 -6 135 -24 265
-25 329 -14 545 9 173 14 202 49 298 16 45 32 99 34 120 4 32 2 37 -16 37 -11
0 -22 -6 -24 -12z"/>
<path d="M4482 5058 c-17 -17 -15 -26 13 -60 14 -16 23 -33 21 -37 -3 -4 11
-39 30 -77 45 -88 61 -135 69 -204 4 -30 18 -82 32 -115 14 -33 29 -73 33 -90
5 -16 16 -55 25 -85 8 -30 18 -73 21 -95 3 -22 14 -65 24 -95 10 -30 26 -88
34 -128 9 -40 27 -101 41 -135 22 -57 41 -122 51 -172 2 -11 13 -56 24 -100
20 -74 75 -318 85 -375 3 -14 7 -36 10 -50 13 -65 15 -78 19 -115 3 -22 8 -71
11 -110 4 -38 10 -86 15 -105 5 -19 12 -66 16 -105 6 -78 100 -372 140 -442
14 -24 45 -82 70 -130 90 -171 95 -178 134 -163 3 1 9 2 13 1 15 -2 19 31 8
72 -6 23 -13 58 -16 77 -3 19 -12 49 -20 65 -8 17 -32 77 -54 135 -31 82 -41
124 -46 195 -3 50 -10 113 -15 140 -14 73 -21 115 -25 155 -3 19 -6 44 -9 55
-6 31 -15 112 -21 200 -3 44 -13 112 -20 152 -8 39 -17 89 -21 110 -3 21 -15
74 -26 118 -11 45 -20 113 -20 155 0 41 -6 111 -13 155 -46 269 -56 324 -65
355 -6 19 -17 76 -25 125 -13 81 -28 133 -72 262 -8 23 -25 57 -38 75 -71 96
-76 107 -78 149 -2 37 -6 45 -25 47 -20 3 -22 -1 -22 -45 0 -51 11 -77 72
-164 40 -58 102 -231 113 -314 4 -27 16 -90 27 -140 11 -49 22 -108 25 -130 2
-22 13 -83 23 -135 23 -114 28 -162 31 -255 1 -38 6 -85 11 -104 13 -46 17
-63 34 -156 9 -44 17 -87 19 -95 2 -8 6 -40 10 -70 4 -30 8 -65 10 -78 2 -13
7 -65 11 -115 3 -51 8 -95 10 -98 1 -3 6 -28 9 -55 4 -27 13 -80 20 -119 7
-38 16 -106 19 -150 10 -124 14 -141 68 -280 27 -71 52 -141 54 -155 3 -14 7
-34 11 -45 3 -11 3 -18 0 -15 -6 6 -83 151 -133 250 -46 93 -122 327 -130 402
-3 35 -10 83 -16 108 -12 56 -15 78 -22 165 -3 39 -10 95 -15 125 -10 54 -38
196 -56 280 -3 14 -7 34 -9 45 -2 11 -16 64 -31 118 -14 53 -28 105 -30 115
-9 46 -38 150 -55 196 -20 53 -72 245 -96 356 -19 88 -50 193 -79 265 -13 33
-31 98 -39 145 -9 50 -30 113 -50 155 -19 38 -42 89 -51 112 -23 54 -57 87
-73 71z"/>
<path d="M4672 2140 c-52 -16 -114 -32 -139 -36 -81 -11 -234 -62 -486 -163
-71 -28 -172 -65 -225 -81 -53 -16 -117 -35 -142 -43 -25 -8 -88 -25 -140 -38
-52 -12 -117 -33 -145 -45 -27 -13 -93 -31 -145 -40 -52 -9 -162 -38 -245 -64
-82 -26 -172 -51 -200 -55 -47 -6 -115 -26 -282 -81 -39 -13 -82 -24 -94 -24
-39 0 -158 -50 -174 -73 -32 -46 -14 -80 49 -91 93 -17 147 -109 149 -254 1
-85 -17 -131 -74 -196 -34 -40 -117 -82 -177 -92 -47 -7 -72 -28 -54 -46 6 -6
55 -11 119 -12 99 -1 113 -4 175 -33 37 -17 89 -35 115 -38 73 -10 140 -25
225 -52 l77 -24 -38 -57 c-21 -31 -56 -90 -77 -131 -67 -128 -143 -185 -262
-197 -19 -2 -61 -9 -91 -15 -56 -13 -309 -14 -364 -3 -19 4 -29 1 -33 -11 -14
-36 8 -40 241 -46 58 -1 173 9 186 17 4 2 31 6 60 10 63 7 130 29 179 60 50
31 75 65 137 183 51 97 56 98 51 6 -6 -104 -29 -150 -107 -209 -33 -25 -62
-46 -65 -46 -12 0 -136 -82 -136 -90 0 -4 7 -13 15 -20 12 -10 22 -8 53 13 20
14 53 33 72 44 83 43 158 112 187 171 24 50 28 70 29 157 3 159 0 146 32 129
16 -7 59 -21 98 -30 38 -10 112 -30 164 -45 52 -16 115 -31 140 -33 58 -7 95
-18 147 -46 28 -14 66 -23 111 -26 65 -4 165 -33 287 -83 99 -40 165 -55 193
-44 76 30 407 134 472 148 41 10 99 28 128 41 88 39 203 66 287 69 178 5 368
49 517 119 29 14 116 43 193 65 77 22 187 53 245 69 58 17 157 49 220 72 315
115 372 131 449 131 131 -1 155 28 172 207 5 58 12 122 15 141 10 64 -16 188
-50 239 -50 74 -157 144 -278 181 -195 61 -303 99 -411 144 -59 26 -171 65
-250 87 -78 23 -165 52 -194 65 -28 14 -69 27 -90 31 -163 24 -227 36 -264 49
-23 8 -67 18 -98 21 -31 3 -113 21 -182 40 -69 19 -139 34 -155 33 -16 0 -71
-13 -122 -29z"/>
</g>
</svg>
